PathFileType  4	(X/Y/Z) C:\Users\antoi\Documents\MyRepositories\mobilecap\ResultsAnalysis
DataRate	CameraRate	NumFrames	NumMarkers	Units	OrigDataRate	OrigDataStartFrame	OrigNumFrames
100.0	100.0	5	51	mm	100.0	117	232
Frame#	Time	r_knee			r_shank_antsup			r_ankle			r_calc			r_5meta			r_toe			L_knee			L_shank_antsup			L_ankle			L_calc			L_5meta			L_toe			r_sh2			r_sh3			r_sh4			L_sh2			L_sh3			r_thigh1			r_thigh2			r_thigh3			r_thigh4			r_thigh5			L_thigh1			L_thigh2			L_thigh3			L_thigh4			r.ASIS			r.PSIS			L.ASIS			L.PSIS			C7			R_Shoulder			L_Shoulder			R_Sternum			L_Sternum			R_humerus			R_elbow_med			R_elbow_lat			R_forearm			R_wrist_radius			R_wrist_ulna			L_humerus			L_elbow_med			L_elbow_lat			L_forearm			L_wrist_radius			L_wrist_ulna			R_HJC			L_HJC			R_HJC_reg			L_HJC_reg			
		X1	Y1	Z1	X2	Y2	Z2	X3	Y3	Z3	X4	Y4	Z4	X5	Y5	Z5	X6	Y6	Z6	X7	Y7	Z7	X8	Y8	Z8	X9	Y9	Z9	X10	Y10	Z10	X11	Y11	Z11	X12	Y12	Z12	X13	Y13	Z13	X14	Y14	Z14	X15	Y15	Z15	X16	Y16	Z16	X17	Y17	Z17	X18	Y18	Z18	X19	Y19	Z19	X20	Y20	Z20	X21	Y21	Z21	X22	Y22	Z22	X23	Y23	Z23	X24	Y24	Z24	X25	Y25	Z25	X26	Y26	Z26	X27	Y27	Z27	X28	Y28	Z28	X29	Y29	Z29	X30	Y30	Z30	X31	Y31	Z31	X32	Y32	Z32	X33	Y33	Z33	X34	Y34	Z34	X35	Y35	Z35	X36	Y36	Z36	X37	Y37	Z37	X38	Y38	Z38	X39	Y39	Z39	X40	Y40	Z40	X41	Y41	Z41	X42	Y42	Z42	X43	Y43	Z43	X44	Y44	Z44	X45	Y45	Z45	X46	Y46	Z46	X47	Y47	Z47	X48	Y48	Z48	X49	Y49	Z49	X50	Y50	Z50	X51	Y51	Z51	

117	1.16000000	-358.35584	708.30132	-404.86015	-303.71617	654.15896	-410.66202	-304.08354	306.47859	-390.49659	-366.96478	288.56785	-434.99823	-210.17341	224.02119	-355.74890	-153.65288	246.86393	-402.33249	-361.14929	719.53623	-774.13320	-304.04744	646.39704	-791.36345	-271.95628	328.67727	-812.87221	-333.01263	307.58600	-760.45993	-174.75741	235.60048	-841.23804	-127.34512	264.43033	-797.07377	-304.92436	541.58367	-379.70835	-383.72150	650.61240	-390.61109	-377.60776	538.17197	-379.75854	-391.53206	630.64266	-793.14824	-356.98921	514.86891	-815.51339	-406.51314	1027.69217	-394.78265	-374.23175	919.43015	-393.88891	-422.58487	881.32464	-368.29235	-514.26664	993.59558	-389.09640	-475.98380	882.76464	-386.34326	-422.20832	985.32373	-793.49321	-367.75022	858.61522	-781.81371	-524.12222	940.48925	-754.54415	-463.58703	813.97540	-760.45836	-406.32470	1174.40723	-452.73637	-583.23769	1229.72426	-534.56207	-398.97426	1161.99361	-698.65604	-587.34138	1236.68324	-630.62796	-415.46700	1637.93147	-612.00689	-341.76023	1622.17989	-462.48281	-355.22521	1600.77596	-759.15817	-297.18176	1538.09796	-580.20508	-295.75490	1535.56913	-622.14914	-402.29459	1590.37769	-346.71876	-575.92700	1460.78626	-268.47641	-553.95980	1527.97105	-226.14282	-421.71461	1488.48833	-213.50449	-304.50428	1441.35629	-214.20446	-306.12069	1424.86577	-183.23635	-377.40765	1552.37093	-860.80109	-503.29226	1367.91404	-959.93439	-481.07586	1441.51916	-1001.32065	-380.97037	1434.70261	-957.84820	-244.42123	1408.09896	-907.52152	-236.05922	1403.72432	-941.56588	-488.88323	1102.38206	-474.48716	-484.99317	1099.04623	-680.89409	-476.31617	1095.62600	-488.90266	-483.23933	1107.36384	-650.91640	
118	1.17000000	-343.16562	684.78842	-404.16426	-288.52243	630.82698	-410.25279	-291.73560	282.58482	-390.67796	-355.25382	265.65522	-434.41922	-198.07253	198.35094	-358.30832	-141.95064	221.07311	-405.46008	-343.46749	697.28331	-774.67668	-286.35041	623.61557	-791.27038	-260.46478	305.48200	-813.04656	-323.44483	285.87823	-762.95138	-165.57758	210.01146	-840.81376	-118.23504	237.35798	-795.85809	-290.57793	517.61270	-379.78042	-368.33596	627.74758	-389.83440	-363.60108	515.69698	-379.48727	-374.16226	609.90021	-794.23863	-342.01503	493.31277	-816.27593	-393.36991	1003.62579	-394.25141	-360.80267	895.59527	-393.32249	-408.83359	857.16704	-367.98213	-501.17680	968.92465	-388.73578	-462.25386	858.23005	-386.11943	-407.87529	962.70360	-793.99091	-351.27930	836.88612	-782.66223	-509.18099	915.94142	-755.40821	-446.46171	790.62836	-761.52912	-393.88297	1150.12224	-452.51159	-571.89571	1203.77237	-533.90063	-387.96026	1137.79476	-699.10938	-576.58204	1210.41734	-630.09633	-406.95487	1614.49089	-612.36323	-333.33214	1600.73366	-464.92496	-347.13433	1580.30572	-757.82450	-288.13202	1515.47582	-581.57940	-286.51972	1512.96574	-622.87163	-394.19960	1572.05312	-349.43174	-569.61261	1444.61675	-270.50014	-548.27953	1512.74899	-229.73995	-415.79939	1474.54249	-216.07921	-298.06079	1428.52319	-216.05130	-299.61392	1412.63884	-184.65710	-369.10406	1536.56985	-860.44791	-492.81243	1354.74990	-966.76295	-473.01809	1430.58447	-1004.82968	-372.84408	1425.24796	-962.00927	-235.96841	1401.07236	-912.11241	-227.46683	1397.81171	-945.97808	-475.95592	1077.32649	-474.21966	-473.09799	1073.90612	-680.64215	-463.54627	1070.82768	-488.20633	-471.45828	1082.04855	-650.63069	
119	1.18000000	-327.32562	660.45397	-403.44343	-272.98226	606.35121	-409.85206	-279.83683	257.89579	-391.03182	-344.49292	242.62361	-433.77368	-187.20647	171.27908	-361.67162	-131.47345	193.35481	-409.66250	-324.86427	674.59854	-775.16562	-268.14206	599.88903	-790.90573	-250.64866	281.32533	-813.18674	-315.32653	264.08282	-764.78808	-159.00060	183.12066	-840.89045	-111.39821	207.88379	-794.35258	-275.95623	492.82449	-379.67755	-352.31402	604.16624	-388.97725	-349.47541	492.81910	-379.48663	-356.22714	588.57543	-794.83442	-327.18207	471.16880	-816.67631	-380.23553	978.66041	-393.70211	-347.19931	870.94104	-392.72786	-394.89009	832.14826	-367.58536	-487.99368	943.13688	-388.31810	-448.39340	832.64051	-385.82258	-393.36379	939.28149	-794.59062	-334.35536	814.47192	-783.27157	-493.83813	890.46429	-756.00307	-428.60098	766.50715	-761.97403	-381.36765	1124.82382	-452.49851	-560.50251	1176.90357	-533.19445	-376.95696	1112.71205	-699.45099	-565.78060	1183.13451	-629.57526	-398.58419	1590.05537	-612.83021	-325.14957	1578.39707	-467.15910	-339.15373	1558.96160	-756.48590	-279.06219	1491.99193	-582.55808	-277.31898	1489.51593	-623.71116	-386.53680	1552.14889	-352.14309	-563.51768	1426.30611	-273.39798	-542.82877	1495.41982	-233.65397	-410.23689	1458.77218	-219.10346	-291.93787	1413.93785	-218.51112	-293.33641	1398.44272	-187.05125	-361.00150	1519.49163	-859.65724	-482.44138	1340.68775	-973.06847	-465.15089	1418.29344	-1007.95474	-364.83933	1414.56970	-965.77345	-227.77552	1392.58168	-915.71130	-219.08337	1390.53506	-949.52675	-462.95590	1051.29463	-474.01115	-461.17974	1047.84893	-680.44593	-450.77555	1045.36189	-487.57507	-459.67948	1055.87623	-650.20197	
120	1.19000000	-310.84393	635.41687	-402.94855	-256.61865	580.30935	-409.94009	-269.25100	232.29900	-392.12886	-335.22204	218.60840	-433.15269	-177.65833	144.28281	-364.90562	-122.58854	164.97452	-414.61820	-305.17139	651.80331	-776.19988	-249.50217	575.01164	-790.67663	-243.01997	256.43239	-813.18916	-309.06936	242.00439	-765.73238	-154.86721	155.62021	-840.88469	-106.93705	177.12944	-792.38616	-261.11514	467.01164	-379.88778	-335.56150	579.81162	-388.03920	-334.72850	468.54885	-379.16286	-337.88812	566.73238	-795.01835	-312.78809	448.38775	-816.64156	-367.38902	953.10715	-392.90426	-333.20213	845.55888	-392.21968	-380.42821	806.28513	-367.12610	-474.68847	916.16274	-388.08173	-433.92166	806.24451	-385.45664	-378.83174	914.97803	-795.23534	-317.10856	791.37313	-783.69659	-478.20105	864.11210	-756.41910	-410.32512	741.47771	-761.74149	-369.01513	1098.60102	-452.67180	-549.07864	1149.08803	-532.45869	-365.87351	1086.68999	-699.61690	-554.79875	1155.12984	-628.69957	-390.49213	1564.54816	-613.30492	-317.17460	1555.08236	-469.11734	-331.20987	1537.00931	-755.51954	-269.33677	1468.33245	-581.73458	-268.17842	1465.16786	-624.50689	-379.40977	1530.62350	-355.11180	-557.75956	1405.75447	-276.98751	-537.42175	1475.79239	-237.93123	-404.95394	1440.95112	-222.44647	-286.09709	1397.48582	-221.29020	-287.49805	1382.10683	-190.07371	-353.15319	1501.08880	-858.63764	-472.50077	1325.18614	-978.57597	-457.35695	1404.36885	-1010.55593	-357.05958	1402.34996	-968.67896	-219.81889	1382.28970	-918.11654	-211.10490	1381.49866	-952.22377	-450.00430	1024.32592	-473.77480	-449.28717	1020.96479	-680.21710	-438.04618	1018.77162	-487.36082	-447.71117	1028.97840	-649.94192	
121	1.20000000	-293.58394	609.81203	-402.86946	-239.58107	552.99703	-410.86585	-259.73816	205.92892	-393.99829	-326.28653	193.71482	-432.32696	-168.90814	116.46396	-367.65852	-114.83265	134.84257	-419.65708	-284.38427	628.75009	-777.23294	-230.59495	548.98228	-790.65671	-237.04792	230.95499	-812.60594	-304.52590	219.26454	-766.22709	-152.66323	126.79885	-839.31784	-104.71189	145.77988	-789.74301	-246.28214	440.15326	-381.15307	-318.19913	554.77800	-387.18533	-319.66552	443.29181	-378.59935	-319.21604	544.56441	-795.05206	-299.18747	425.13315	-815.97904	-354.54403	926.94554	-392.11268	-318.68853	819.74386	-391.59752	-365.22722	779.67683	-366.85891	-461.12191	888.08328	-388.18314	-418.56698	779.01436	-385.22567	-364.52643	889.66859	-795.81708	-299.61724	767.70530	-784.24400	-462.33940	836.69160	-756.39839	-391.60186	715.64781	-761.40590	-356.83771	1071.53821	-452.97258	-537.58275	1120.43086	-531.76496	-354.64668	1059.82614	-699.88961	-543.72813	1126.45938	-627.62336	-382.54104	1537.91622	-613.65360	-309.34418	1530.48789	-470.90711	-323.43553	1514.09034	-754.60674	-259.11681	1444.41475	-579.64382	-259.11085	1439.85036	-625.10561	-372.78439	1507.36015	-358.33297	-551.93418	1382.98263	-280.82296	-532.02574	1453.71256	-242.51927	-399.74097	1420.82020	-226.26283	-280.19870	1378.97493	-224.50281	-281.68396	1363.55822	-193.43073	-345.65245	1481.34283	-857.56976	-462.89831	1307.90311	-983.25682	-449.42716	1388.63588	-1012.38105	-349.45625	1388.25382	-970.42887	-212.05709	1369.89971	-919.64547	-203.25152	1370.32046	-953.86861	-437.08847	996.50761	-473.62236	-437.40375	993.34338	-680.06834	-425.28163	991.13197	-487.42514	-435.70230	1001.35106	-649.92757	
